#!OML:ASF F:\VICON\USERDATA\INSTALL\rory3\rory3.ASF
:FULLY-SPECIFIED
:DEGREES
159
root 0.6060920329661427 17.658651568229143 32.34867627727655 1.020064890624237 -1.1445459671286615 -0.9954534250562541
lfemur -14.295704437292107 3.430540663405023 -23.173373502090552
ltibia 47.82875894851213
lfoot 0.5969082062587991 -7.969278033702097
ltoes -6.732006203484237
rfemur -27.97009933830569 2.8025979885526073 25.919570491252728
rtibia 62.94118425934381
rfoot 0.3642047928411918 -5.948273062367052
rtoes 2.841598953134577
lowerback 14.510280354826524 0.4347541501282455 0.6250383668058708
upperback -0.9199811569011096 1.0301402251258085 0.9989411799363312
thorax -9.240191710968103 0.5588220165534319 1.1885353994376466
lowerneck -20.106339845542593 -3.7367918338702344 -2.481578625074916
upperneck 12.86158359129023 -5.652829877706504 5.243710809443782
head 7.385855786324093 -2.3686155570795493 1.4734331164323033
lclavicle 2.9801515526439752e-15 1.1900897868484632e-16
lhumerus -45.56685646444271 -12.375505435445117 95.94800052532835
lradius 113.65715616788643
lwrist 34.41233821959402
lhand -20.654699136865077 2.8565575540442145
lfingers 7.125019999999999
lthumb 5.41290476037288 32.409917625068324
rclavicle 2.9801381671163078e-15 1.1900166246856291e-16
rhumerus -51.06124776450557 11.36554423332758 -97.83113896733838
rradius 110.57955782737793
rwrist -15.257662196241776
rhand -15.783874668552809 38.41383162817497
rfingers 7.125019999999999
rthumb 10.568739428504069 8.401826224311412
160
root 0.6107577872589061 17.684316754018422 33.192707362765255 1.1109214728800674 -1.0233670113276232 -0.8665826834603201
lfemur -18.542788803365642 2.449138494911464 -24.232444529766454
ltibia 47.65280612625189
lfoot 1.5631993924819407 -7.70744433822
ltoes -6.980772711656117
rfemur -27.069626749178106 3.2829411270422746 26.6336640542222
rtibia 62.16832888813507
rfoot -0.0008011659992472886 -6.415238422936273
rtoes 2.0726091963080826
lowerback 14.483928369472409 0.3894426983724167 0.5610651127737636
upperback -0.916610747512044 0.9163230574741854 1.090148055436611
thorax -9.297589583628977 0.4347108380901858 1.0687600901870944
lowerneck -20.10705905428487 -3.7147200360067467 -2.4737692034785836
upperneck 12.775841832221309 -5.664439876462173 5.198368341366834
head 7.3931876854876855 -2.3316276200749764 1.483510356352033
lclavicle 2.9801515526439752e-15 1.1900897868484632e-16
lhumerus -45.00386714291799 -12.592191339762149 95.93586052410137
lradius 114.08355351714637
lwrist 34.40437680181965
lhand -20.62089079176308 2.863702354475067
lfingers 7.125019999999999
lthumb 5.466828829033801 32.54444051016093
rclavicle 2.9801381671163078e-15 1.1900166246856291e-16
rhumerus -51.24072095860377 11.215517692212492 -97.77633239467868
rradius 110.48696015560533
rwrist -15.221434392967735
rhand -15.78520625151935 38.402736606210354
rfingers 7.125019999999999
rthumb 10.551432451544416 8.370805592198897
161
root 0.6222918452072856 17.752455025954376 35.01734572694623 1.3087902269435645 -0.7583377528200392 -0.6231376300117513
lfemur -12.906427255024123 3.578220695392993 -22.576310679252384
ltibia 48.651246437429776
lfoot 0.8872904764057844 -8.533377528019997
ltoes -7.515055174900051
rfemur -28.31404510731993 3.2365006011940034 26.18124872073242
rtibia 61.77947115035848
rfoot 0.4298690506787519 -6.188802201648971
rtoes 1.254613146232247
lowerback 14.326141085278552 0.24278070265046037 0.3573117008419271
upperback -0.9503160691012839 0.8119435758698007 1.190474148142019
thorax -9.270838371071102 0.44428598506284567 1.2647132274927781
lowerneck -19.995424054819292 -3.5819999147441974 -2.4306584456513582
upperneck 12.765189174409139 -5.609505391583186 5.2300220754607105
head 7.395529698754067 -2.3072174536027292 1.4879186388256658
lclavicle 2.9801515526439752e-15 1.1900897868484632e-16
lhumerus -44.816395103147535 -12.606906201606835 95.88406805607477
lradius 114.17944372245469
lwrist 34.3446322252296
lhand -20.541316259050184 2.9164238898952712
lfingers 7.125019999999999
lthumb 5.44305959586114 32.481134083882694
rclavicle 2.9801381671163078e-15 1.1900166246856291e-16
rhumerus -51.673520952465076 10.919734056784268 -97.79832635431073
rradius 110.41433448742461
rwrist -15.216302163557362
rhand -15.769808546275257 38.41114106975933
rfingers 7.125019999999999
rthumb 10.610753591749193 8.4096521139535
162
root 0.6325239751009237 17.811993993473855 36.246979783145676 1.403512314786724 -0.5404827062082354 -0.4393747566229045
lfemur -14.341714138516174 3.384671604974031 -22.783519038519604
ltibia 50.149433236603954
lfoot 2.9169046417748987 -8.856184733272022
ltoes -7.918031789544467
rfemur -30.06143125132395 3.0430392136719804 26.41036837762841
rtibia 60.891747559956016
rfoot 1.9207030765543194 -5.302001095482564
rtoes 0.8682578531371861
lowerback 14.186901418044288 0.10726615992586819 0.2921583064537645
upperback -0.9882664196168044 0.823344812649982 1.3261710963436604
thorax -9.29957032463952 0.34958500547913335 1.196138238424629
lowerneck -20.035051812061038 -3.622449704745862 -2.459409170821223
upperneck 12.66633711348871 -5.6653621012723505 5.1729942184684035
head 7.406682462156434 -2.303334979239962 1.4779923973538625
lclavicle 2.9801515526439752e-15 1.1900897868484632e-16
lhumerus -44.62754426999584 -12.45865642121274 95.77682041545793
lradius 113.95517909056585
lwrist 34.466172774368424
lhand -20.522388121477764 2.913381521509761
lfingers 7.125019999999999
lthumb 5.50859917225562 32.572698967794125
rclavicle 2.9801381671163078e-15 1.1900166246856291e-16
rhumerus -51.69023645995942 10.788240823436192 -97.73611672767073
rradius 110.38498530012609
rwrist -15.281664212085685
rhand -15.740171871352805 38.44218415931432
rfingers 7.125019999999999
rthumb 10.506045878886765 8.311482447993473
